<?xml version="1.0" encoding="utf-8"?>
<!-- Generator: Adobe Illustrator 17.0.0, SVG Export Plug-In . SVG Version: 6.00 Build 0)  -->
<!DOCTYPE svg PUBLIC "-//W3C//DTD SVG 1.1//EN" "http://www.w3.org/Graphics/SVG/1.1/DTD/svg11.dtd">
<svg version="1.1" id="Layer_1" xmlns="http://www.w3.org/2000/svg" xmlns:xlink="http://www.w3.org/1999/xlink" x="0px" y="0px"
	 width="248px" height="72px" viewBox="0 0 248 72" enable-background="new 0 0 248 72" xml:space="preserve">
<g>
	<path fill="#21409A" d="M88,56c0,4.418-3.224,8-7.2,8H23.2c-3.976,0-7.2-3.582-7.2-8V16c0-4.418,3.224-8,7.2-8h57.6
		c3.976,0,7.2,3.582,7.2,8V56z"/>
	<g>
		<g>
			<path fill="#FFFFFF" d="M34.108,36.05l9.268,4.994V48l-14-9.068v-5.863L34.108,36.05z"/>
			<path fill="#BCBEC0" d="M34.108,36.05l-4.732-2.981l14-9.068v6.957L34.108,36.05z"/>
		</g>
		<path fill="#FFFFFF" d="M49.008,48H45l9.992-24H59L49.008,48z"/>
		<g>
			<path fill="#BCBEC0" d="M69.963,35.95l-9.339-5.043V24l14,9.068v5.839L69.963,35.95z"/>
			<path fill="#FFFFFF" d="M69.963,35.95l4.661-2.882v5.839l-14,9.093v-6.932L69.963,35.95z"/>
		</g>
	</g>
</g>
<g>
	<path fill="#21409A" d="M119.71,46.642h-2.71L106.71,30.89v15.753H104V26.2h2.71l10.319,15.823V26.2h2.682V46.642z"/>
	<path fill="#21409A" d="M124.105,27.422c0-0.421,0.129-0.777,0.386-1.067s0.639-0.435,1.144-0.435c0.505,0,0.889,0.145,1.151,0.435
		c0.262,0.29,0.393,0.646,0.393,1.067c0,0.421-0.131,0.772-0.393,1.053c-0.262,0.281-0.646,0.421-1.151,0.421
		c-0.505,0-0.887-0.14-1.144-0.421S124.105,27.843,124.105,27.422z M126.913,46.642h-2.597V31.451h2.597V46.642z"/>
	<path fill="#21409A" d="M137.162,44.803c0.927,0,1.736-0.281,2.429-0.842c0.693-0.562,1.076-1.264,1.151-2.106h2.457
		c-0.047,0.87-0.346,1.699-0.899,2.485c-0.552,0.786-1.289,1.413-2.211,1.881s-1.898,0.702-2.927,0.702
		c-2.069,0-3.714-0.69-4.935-2.071c-1.221-1.381-1.832-3.269-1.832-5.665v-0.435c0-1.479,0.271-2.794,0.814-3.945
		c0.543-1.151,1.322-2.045,2.338-2.682c1.016-0.636,2.216-0.955,3.601-0.955c1.703,0,3.119,0.51,4.247,1.53s1.729,2.345,1.804,3.973
		h-2.457c-0.075-0.983-0.447-1.79-1.116-2.422c-0.669-0.632-1.495-0.948-2.478-0.948c-1.32,0-2.342,0.475-3.068,1.425
		c-0.725,0.95-1.088,2.324-1.088,4.121v0.491c0,1.75,0.36,3.098,1.081,4.043C134.794,44.33,135.823,44.803,137.162,44.803z"/>
	<path fill="#21409A" d="M155.498,46.642c-0.15-0.3-0.271-0.833-0.365-1.601c-1.207,1.254-2.649,1.881-4.324,1.881
		c-1.498,0-2.726-0.424-3.685-1.271c-0.959-0.847-1.439-1.921-1.439-3.222c0-1.582,0.601-2.81,1.804-3.685
		c1.203-0.875,2.895-1.313,5.075-1.313h2.527v-1.193c0-0.908-0.271-1.631-0.814-2.169c-0.543-0.538-1.343-0.807-2.401-0.807
		c-0.927,0-1.703,0.234-2.331,0.702c-0.627,0.468-0.941,1.034-0.941,1.699h-2.611c0-0.758,0.269-1.491,0.807-2.197
		c0.538-0.707,1.268-1.266,2.19-1.678c0.922-0.412,1.935-0.618,3.04-0.618c1.75,0,3.121,0.438,4.114,1.313
		c0.992,0.875,1.507,2.08,1.544,3.615v6.992c0,1.395,0.178,2.504,0.534,3.327v0.225H155.498z M151.187,44.662
		c0.814,0,1.586-0.211,2.317-0.632c0.73-0.421,1.259-0.969,1.586-1.643v-3.117h-2.036c-3.182,0-4.773,0.931-4.773,2.794
		c0,0.814,0.271,1.451,0.814,1.909S150.336,44.662,151.187,44.662z"/>
	<path fill="#21409A" d="M167.853,44.803c0.927,0,1.736-0.281,2.429-0.842c0.693-0.562,1.076-1.264,1.151-2.106h2.457
		c-0.047,0.87-0.346,1.699-0.899,2.485s-1.289,1.413-2.211,1.881s-1.898,0.702-2.927,0.702c-2.069,0-3.714-0.69-4.935-2.071
		c-1.221-1.381-1.832-3.269-1.832-5.665v-0.435c0-1.479,0.271-2.794,0.814-3.945c0.543-1.151,1.322-2.045,2.338-2.682
		c1.016-0.636,2.216-0.955,3.601-0.955c1.703,0,3.119,0.51,4.247,1.53s1.729,2.345,1.804,3.973h-2.457
		c-0.075-0.983-0.447-1.79-1.116-2.422c-0.669-0.632-1.495-0.948-2.478-0.948c-1.32,0-2.342,0.475-3.068,1.425
		c-0.725,0.95-1.088,2.324-1.088,4.121v0.491c0,1.75,0.36,3.098,1.081,4.043C165.485,44.33,166.514,44.803,167.853,44.803z"/>
	<path fill="#21409A" d="M176.122,38.906c0-1.488,0.292-2.827,0.877-4.015c0.585-1.189,1.399-2.106,2.443-2.752
		c1.044-0.646,2.235-0.969,3.573-0.969c2.069,0,3.742,0.716,5.019,2.148c1.278,1.432,1.916,3.337,1.916,5.714v0.183
		c0,1.479-0.283,2.806-0.849,3.98c-0.566,1.175-1.376,2.09-2.429,2.745s-2.263,0.983-3.629,0.983c-2.059,0-3.728-0.716-5.005-2.148
		s-1.916-3.327-1.916-5.686V38.906z M178.733,39.215c0,1.685,0.391,3.037,1.172,4.057s1.827,1.53,3.138,1.53
		c1.32,0,2.368-0.517,3.145-1.551c0.777-1.034,1.165-2.483,1.165-4.345c0-1.666-0.395-3.016-1.186-4.05
		c-0.791-1.034-1.842-1.551-3.152-1.551c-1.282,0-2.317,0.51-3.103,1.53S178.733,37.315,178.733,39.215z"/>
	<path fill="#21409A" d="M192.577,38.92c0-2.331,0.552-4.205,1.657-5.623c1.104-1.418,2.551-2.127,4.338-2.127
		c1.778,0,3.187,0.608,4.226,1.825v-7.918h2.597v21.565h-2.387l-0.126-1.629c-1.039,1.273-2.485,1.909-4.338,1.909
		c-1.76,0-3.194-0.721-4.303-2.162c-1.109-1.441-1.664-3.323-1.664-5.644V38.92z M195.174,39.215c0,1.722,0.356,3.07,1.067,4.043
		c0.711,0.973,1.694,1.46,2.948,1.46c1.647,0,2.85-0.739,3.608-2.218v-6.978c-0.777-1.432-1.97-2.148-3.58-2.148
		c-1.273,0-2.265,0.491-2.976,1.474C195.53,35.832,195.174,37.287,195.174,39.215z"/>
	<path fill="#21409A" d="M215.728,46.923c-2.059,0-3.735-0.676-5.026-2.029c-1.292-1.352-1.937-3.161-1.937-5.426V38.99
		c0-1.507,0.288-2.852,0.863-4.036c0.576-1.184,1.381-2.111,2.415-2.78c1.034-0.669,2.155-1.004,3.363-1.004
		c1.975,0,3.51,0.651,4.605,1.952c1.095,1.301,1.643,3.164,1.643,5.588v1.081h-10.291c0.037,1.498,0.475,2.707,1.313,3.629
		s1.902,1.383,3.194,1.383c0.917,0,1.694-0.187,2.331-0.562c0.636-0.374,1.193-0.87,1.671-1.488l1.586,1.235
		C220.183,45.945,218.274,46.923,215.728,46.923z M215.405,33.304c-1.048,0-1.928,0.381-2.639,1.144
		c-0.711,0.763-1.151,1.832-1.32,3.208h7.61V37.46c-0.075-1.32-0.431-2.342-1.067-3.068
		C217.352,33.667,216.491,33.304,215.405,33.304z"/>
	<path fill="#21409A" d="M232,33.782c-0.393-0.066-0.819-0.098-1.278-0.098c-1.703,0-2.859,0.725-3.468,2.176v10.782h-2.597V31.451
		h2.527l0.042,1.755c0.852-1.357,2.059-2.036,3.622-2.036c0.505,0,0.889,0.066,1.151,0.197V33.782z"/>
</g>
</svg>
