<?xml version="1.0" encoding="utf-8"?>
<!-- Generator: Adobe Illustrator 17.0.0, SVG Export Plug-In . SVG Version: 6.00 Build 0)  -->
<!DOCTYPE svg PUBLIC "-//W3C//DTD SVG 1.1//EN" "http://www.w3.org/Graphics/SVG/1.1/DTD/svg11.dtd">
<svg version="1.1" xmlns="http://www.w3.org/2000/svg" xmlns:xlink="http://www.w3.org/1999/xlink" x="0px" y="0px" width="352px"
	 height="96px" viewBox="0 0 352 96" style="enable-background:new 0 0 352 96;" xml:space="preserve">
<style type="text/css">
	.st0{fill:#1C75BC;}
	.st1{fill:#27AAE1;}
	.st2{fill:#FFFFFF;}
</style>
<g id="nicacoder-logo">
	<g>
		<g>
			<path class="st0" d="M80,72c0,4.4-3.6,8-8,8H24c-4.4,0-8-3.6-8-8V24c0-4.4,3.6-8,8-8h48c4.4,0,8,3.6,8,8V72z"/>
			<path class="st1" d="M46.9,33h12.8l8.3,19.3l-8.3,19.2H46.9l8.3-19.2L46.9,33z"/>
			<path class="st2" d="M36.4,63l-8.3-19.2l8.3-19.3h12.8l-8.3,19.3L49.1,63H36.4z"/>
		</g>
		<g>
			<path class="st0" d="M123,66h-5.4l-16.2-24.5V66H96V33.1h5.4l16.2,24.5V33.1h5.4V66z"/>
			<path class="st0" d="M130.4,35.5c-0.7-0.7-1-1.5-1-2.5c0-1,0.3-1.8,1-2.5c0.7-0.7,1.5-1,2.5-1c0.9,0,1.7,0.3,2.4,1s1,1.5,1,2.5
				c0,1-0.3,1.8-1,2.5c-0.7,0.7-1.5,1-2.4,1C131.9,36.5,131,36.2,130.4,35.5z M135.5,39.9v26h-5.4v-26H135.5z"/>
			<path class="st0" d="M142.4,45.9c1.1-2,2.6-3.6,4.5-4.7c1.9-1.1,4.1-1.7,6.6-1.7c3.1,0,5.8,0.7,7.8,2.2c2.1,1.5,3.5,3.6,4.2,6.4
				h-5.8c-0.5-1.3-1.2-2.3-2.3-3c-1-0.7-2.3-1.1-3.9-1.1c-2.2,0-4,0.8-5.3,2.3c-1.3,1.6-2,3.7-2,6.5c0,2.8,0.7,5,2,6.6
				c1.3,1.6,3.1,2.4,5.3,2.4c3.1,0,5.2-1.4,6.2-4.1h5.8c-0.8,2.6-2.2,4.7-4.2,6.3c-2.1,1.6-4.7,2.3-7.7,2.3c-2.5,0-4.7-0.6-6.6-1.7
				c-1.9-1.1-3.4-2.7-4.5-4.7c-1.1-2-1.6-4.4-1.6-7.1C140.8,50.3,141.4,47.9,142.4,45.9z"/>
			<path class="st0" d="M170.8,45.9c1.1-2,2.6-3.6,4.4-4.7c1.9-1.1,3.9-1.7,6.2-1.7c2,0,3.8,0.4,5.4,1.2c1.5,0.8,2.7,1.8,3.7,3v-3.8
				h5.4v26h-5.4v-3.9c-0.9,1.2-2.2,2.3-3.7,3.1c-1.6,0.8-3.4,1.2-5.4,1.2c-2.2,0-4.3-0.6-6.1-1.7c-1.9-1.1-3.3-2.8-4.4-4.8
				c-1.1-2.1-1.6-4.4-1.6-7C169.2,50.2,169.7,47.9,170.8,45.9z M189.4,48.3c-0.7-1.3-1.7-2.3-2.9-3c-1.2-0.7-2.5-1-3.9-1
				c-1.4,0-2.7,0.3-3.9,1c-1.2,0.7-2.2,1.7-2.9,3c-0.7,1.3-1.1,2.9-1.1,4.7c0,1.8,0.4,3.4,1.1,4.7c0.7,1.4,1.7,2.4,2.9,3.1
				c1.2,0.7,2.5,1.1,3.8,1.1c1.4,0,2.7-0.3,3.9-1c1.2-0.7,2.2-1.7,2.9-3c0.7-1.3,1.1-2.9,1.1-4.7C190.5,51.1,190.1,49.6,189.4,48.3z
				"/>
			<path class="st1" d="M202.9,45.9c1.1-2,2.6-3.6,4.5-4.7c1.9-1.1,4.1-1.7,6.6-1.7c3.1,0,5.8,0.7,7.8,2.2c2.1,1.5,3.5,3.6,4.2,6.4
				h-5.8c-0.5-1.3-1.2-2.3-2.3-3c-1-0.7-2.3-1.1-3.9-1.1c-2.2,0-4,0.8-5.3,2.3c-1.3,1.6-2,3.7-2,6.5c0,2.8,0.7,5,2,6.6
				c1.3,1.6,3.1,2.4,5.3,2.4c3.1,0,5.2-1.4,6.2-4.1h5.8c-0.8,2.6-2.2,4.7-4.2,6.3c-2.1,1.6-4.7,2.3-7.7,2.3c-2.5,0-4.7-0.6-6.6-1.7
				c-1.9-1.1-3.4-2.7-4.5-4.7c-1.1-2-1.6-4.4-1.6-7.1C201.2,50.3,201.8,47.9,202.9,45.9z"/>
			<path class="st1" d="M236,64.7c-2-1.1-3.5-2.7-4.7-4.7c-1.1-2-1.7-4.4-1.7-7.1c0-2.6,0.6-5,1.7-7c1.2-2,2.8-3.6,4.8-4.7
				c2-1.1,4.3-1.7,6.8-1.7c2.5,0,4.7,0.6,6.8,1.7c2,1.1,3.6,2.7,4.8,4.7c1.2,2,1.7,4.4,1.7,7c0,2.6-0.6,5-1.8,7
				c-1.2,2-2.8,3.6-4.9,4.7c-2.1,1.1-4.3,1.7-6.8,1.7C240.2,66.4,238,65.8,236,64.7z M246.6,60.7c1.2-0.7,2.2-1.7,3-3
				s1.1-2.9,1.1-4.8c0-1.9-0.4-3.5-1.1-4.8c-0.7-1.3-1.7-2.3-2.9-3c-1.2-0.7-2.5-1-3.9-1c-1.4,0-2.7,0.3-3.8,1
				c-1.2,0.7-2.1,1.6-2.8,3c-0.7,1.3-1,2.9-1,4.8c0,2.8,0.7,5,2.1,6.5c1.4,1.5,3.2,2.3,5.4,2.3C244.1,61.7,245.4,61.4,246.6,60.7z"
				/>
			<path class="st1" d="M261.4,45.9c1.1-2,2.6-3.6,4.4-4.7c1.9-1.1,4-1.7,6.3-1.7c1.7,0,3.4,0.4,5,1.1c1.7,0.7,3,1.7,3.9,3V31h5.4
				V66h-5.4V62c-0.9,1.3-2.1,2.3-3.7,3.1c-1.6,0.8-3.3,1.2-5.4,1.2c-2.3,0-4.3-0.6-6.2-1.7c-1.9-1.1-3.4-2.8-4.4-4.8
				c-1.1-2.1-1.6-4.4-1.6-7C259.8,50.2,260.3,47.9,261.4,45.9z M280,48.3c-0.7-1.3-1.7-2.3-2.9-3c-1.2-0.7-2.5-1-3.9-1
				c-1.4,0-2.7,0.3-3.9,1c-1.2,0.7-2.2,1.7-2.9,3c-0.7,1.3-1.1,2.9-1.1,4.7c0,1.8,0.4,3.4,1.1,4.7c0.7,1.4,1.7,2.4,2.9,3.1
				c1.2,0.7,2.5,1.1,3.8,1.1c1.4,0,2.7-0.3,3.9-1c1.2-0.7,2.2-1.7,2.9-3c0.7-1.3,1.1-2.9,1.1-4.7C281.1,51.1,280.7,49.6,280,48.3z"
				/>
			<path class="st1" d="M317.3,55h-19.9c0.2,2.1,0.9,3.7,2.3,5c1.4,1.3,3.1,1.9,5.1,1.9c2.9,0,4.9-1.2,6.1-3.6h5.8
				c-0.8,2.4-2.2,4.4-4.3,5.9c-2.1,1.5-4.6,2.3-7.7,2.3c-2.5,0-4.7-0.6-6.7-1.7c-2-1.1-3.5-2.7-4.6-4.7c-1.1-2-1.7-4.4-1.7-7.1
				c0-2.7,0.5-5,1.6-7.1c1.1-2,2.6-3.6,4.6-4.7c2-1.1,4.2-1.7,6.8-1.7c2.5,0,4.6,0.5,6.6,1.6c1.9,1.1,3.4,2.6,4.5,4.5
				c1.1,1.9,1.6,4.2,1.6,6.7C317.5,53.3,317.4,54.2,317.3,55z M311.9,50.6c0-2-0.7-3.6-2.1-4.8c-1.4-1.2-3.1-1.8-5.1-1.8
				c-1.9,0-3.4,0.6-4.8,1.8c-1.3,1.2-2.1,2.8-2.4,4.8H311.9z"/>
			<path class="st1" d="M331.3,40.6c1.3-0.7,2.9-1.1,4.7-1.1v5.6h-1.4c-2.1,0-3.7,0.5-4.8,1.6c-1.1,1.1-1.6,2.9-1.6,5.6V66h-5.4v-26
				h5.4v3.8C329,42.4,330,41.4,331.3,40.6z"/>
		</g>
	</g>
</g>
<g id="nicacoder-logo-v2">
</g>
</svg>
